<svg xmlns="http://www.w3.org/2000/svg" width="19.73" height="18" viewBox="0 0 19.73 18"><path d="M-4320.677,1919.886h-1.269v-.707a1.311,1.311,0,0,0-1.312-1.311,1.312,1.312,0,0,0-1.312,1.311v.707h-8.088v-.707a1.312,1.312,0,0,0-1.312-1.311,1.311,1.311,0,0,0-1.312,1.311v.707h-1.27a1.931,1.931,0,0,0-1.929,1.929v12.124a1.932,1.932,0,0,0,1.929,1.929h11.762a1.92,1.92,0,0,0,1.313-.516l4.111-3.822a1.937,1.937,0,0,0,.615-1.413v-8.3A1.931,1.931,0,0,0-4320.677,1919.886Zm-16.053,14.053v-10.052h16.233v5.294h-3.343a1.93,1.93,0,0,0-1.929,1.929v3.01h-10.781A.181.181,0,0,1-4336.729,1933.938Zm12.709-.467v-2.363a.18.18,0,0,1,.18-.18h2.556Z" transform="translate(4338.478 -1917.867)" fill="#4a5059"/><rect width="3.486" height="2.175" rx="1.082" transform="translate(3.239 7.622)" fill="#4a5059"/><rect width="3.486" height="2.175" rx="1.082" transform="translate(7.987 7.622)" fill="#4a5059"/><rect width="3.486" height="2.175" rx="1.082" transform="translate(3.239 11.493)" fill="#4a5059"/><rect width="3.486" height="2.175" rx="1.082" transform="translate(7.987 11.493)" fill="#4a5059"/><rect width="3.486" height="2.175" rx="1.082" transform="translate(12.735 7.622)" fill="#4a5059"/></svg>